<?xml version="1.0" encoding="UTF-8" standalone="no"?>
<svg
   xmlns:dc="http://purl.org/dc/elements/1.1/"
   xmlns:cc="http://creativecommons.org/ns#"
   xmlns:rdf="http://www.w3.org/1999/02/22-rdf-syntax-ns#"
   xmlns:svg="http://www.w3.org/2000/svg"
   xmlns="http://www.w3.org/2000/svg"
   xmlns:sodipodi="http://sodipodi.sourceforge.net/DTD/sodipodi-0.dtd"
   xmlns:inkscape="http://www.inkscape.org/namespaces/inkscape"
   version="1.1"
   width="831.297"
   height="259.516"
   id="svg9"
   sodipodi:docname="logo.svg"
   inkscape:version="0.92.3 (unknown)">
  <metadata
     id="metadata15">
    <rdf:RDF>
      <cc:Work
         rdf:about="">
        <dc:format>image/svg+xml</dc:format>
        <dc:type
           rdf:resource="http://purl.org/dc/dcmitype/StillImage" />
      </cc:Work>
    </rdf:RDF>
  </metadata>
  <defs
     id="defs13" />
  <sodipodi:namedview
     pagecolor="#ffffff"
     bordercolor="#666666"
     borderopacity="1"
     objecttolerance="10"
     gridtolerance="10"
     guidetolerance="10"
     inkscape:pageopacity="0"
     inkscape:pageshadow="2"
     inkscape:window-width="1920"
     inkscape:window-height="981"
     id="namedview11"
     showgrid="false"
     inkscape:zoom="1.2418858"
     inkscape:cx="420.28175"
     inkscape:cy="100.24274"
     inkscape:window-x="1200"
     inkscape:window-y="28"
     inkscape:window-maximized="1"
     inkscape:current-layer="g5030" />
  <g
     id="g10"
     transform="matrix(1.25,0,0,-1.25,-441.74346,-302.73113)">
    <g
       id="g5030"
       transform="matrix(2.1497679,0,0,2.1497679,355.42283,-355.95921)">
      <path
         inkscape:connector-curvature="0"
         d="M 150.014,4.8418 C 150.014,2.17773 147.835,0 145.18,0 H 4.83633 C 2.17734,0 0,2.17773 0,4.8418 v 41.3437 c 0,2.661 2.17734,4.8379 4.83633,4.8379 H 145.18 c 2.655,0 4.834,-2.1769 4.834,-4.8379 V 4.8418"
         style="fill:#847059;fill-opacity:1;fill-rule:nonzero;stroke:none"
         id="path166" />
      <g
         id="g4994">
        <g
           id="g4959">
          <path
             inkscape:connector-curvature="0"
             d="m 41.7313,15.9266 c 0,-2.9727 1.9457,-5.3875 4.655,-5.9102 0.5489,-0.11015 1.1141,-0.14726 1.6922,-0.1082 1.5508,0.1082 2.8949,0.718 3.7434,1.2859 l 0.041,-2.03082 c -0.9,-0.52773 -2.266,-1.14101 -4.432,-1.14101 v 0 c -4.4266,0 -7.7356,3.39573 -7.7356,7.87933 0,4.4824 3.309,7.8789 7.7356,7.8789 v 0 c 2.166,0 3.532,-0.6133 4.432,-1.141 l -0.041,-2.0309 c -0.8485,0.568 -2.1926,1.2273 -3.7434,1.3355 -0.5781,0.0395 -1.1433,0.0012 -1.6922,-0.1082 -2.7093,-0.5234 -4.655,-2.9386 -4.655,-5.9093"
             style="fill:#ffffff;fill-opacity:1;fill-rule:nonzero;stroke:none"
             id="path168" />
          <path
             inkscape:connector-curvature="0"
             d="m 35.2078,19.1543 c 0,0.4414 -0.118,0.9102 -0.282,1.2461 -0.1645,0.334 -0.402,0.5984 -0.7805,0.823 -0.3074,0.1797 -0.6613,0.3059 -1.0762,0.3723 -0.4144,0.0691 -0.8996,0.1047 -1.4519,0.1047 h -2.6758 v -5.559 h 2.3508 c 0.6734,0 1.2582,0.041 1.7461,0.1582 0.4441,0.1047 0.9055,0.3012 1.2469,0.5996 0.3171,0.2785 0.5476,0.5957 0.6984,0.9524 0.1508,0.3543 0.2242,0.7422 0.2242,1.3027 z M 39.7094,8.23633 h -2.6895 l -4.859,5.95627 H 28.9414 V 8.23633 H 26.9746 V 23.5273 h 4.4336 c 0.9184,0 1.6801,-0.0351 2.3063,-0.1445 0.7668,-0.1457 1.2425,-0.332 1.764,-0.6808 0.5512,-0.3641 0.8754,-0.7149 1.2051,-1.3016 0.3168,-0.5363 0.5465,-1.4168 0.5465,-2.2305 0,-1.0422 -0.2289,-1.8808 -0.734,-2.675 -0.5051,-0.7945 -1.2402,-1.4187 -2.2109,-1.7488 l 5.4242,-6.50977 v 0"
             style="fill:#ffffff;fill-opacity:1;fill-rule:nonzero;stroke:none"
             id="path170" />
          <path
             inkscape:connector-curvature="0"
             d="M 23.0012,23.5273 H 20.2234 L 17.6016,16.1301 C 17.0277,14.4305 16.5645,12.834 16.1785,11.3855 h -0.0437 c -0.386,1.4485 -0.8489,3.045 -1.4235,4.7446 l -2.6211,7.3972 H 9.31289 L 8.23633,8.23516 h 2.03747 l 0.4102,6.55704 c 0.1375,2.3113 0.2508,4.8543 0.2961,6.7586 h 0.0457 c 0.4344,-1.8145 1.0254,-3.7656 1.7539,-5.9422 l 2.5086,-7.28438 h 1.7371 l 2.5059,7.28438 c 0.73,2.1766 1.3222,4.1277 1.7558,5.9422 h 0.0453 c 0.0449,-1.9043 0.1594,-4.4473 0.2965,-6.7586 L 22.0398,8.23516 H 24.077 L 23.0012,23.5273"
             style="fill:#ffffff;fill-opacity:1;fill-rule:nonzero;stroke:none"
             id="path172" />
        </g>
        <path
           inkscape:connector-curvature="0"
           id="path174"
           style="fill:#ffffff;fill-opacity:1;fill-rule:nonzero;stroke:none"
           d="M 60.9988,4.76289 H 59.8215 V 46.6004 h 1.1773 V 4.76289" />
        <g
           id="g4964">
          <g
             id="g4952">
            <path
               inkscape:connector-curvature="0"
               id="path176"
               style="fill:#ffffff;fill-opacity:1;fill-rule:nonzero;stroke:none"
               d="m 73.673,24.3223 c 0,0.2773 -0.0421,0.4953 -0.1246,0.659 -0.0836,0.1621 -0.2339,0.3 -0.4523,0.4132 -0.1457,0.0774 -0.3258,0.1258 -0.5359,0.1504 -0.2106,0.0235 -0.4661,0.034 -0.7664,0.034 h -1.4321 v -2.5508 h 1.2063 c 0.4,0 0.7265,0.0227 0.9808,0.0625 0.2547,0.041 0.4641,0.1184 0.6258,0.2278 0.1727,0.1211 0.2981,0.257 0.3777,0.4089 0.0793,0.1543 0.1207,0.3516 0.1207,0.595 z m -0.5855,3.1257 c 0,0.1653 -0.0273,0.3047 -0.0824,0.42 -0.0547,0.1125 -0.1442,0.2043 -0.2664,0.2754 -0.1453,0.0824 -0.3203,0.1339 -0.5254,0.1535 -0.2067,0.0195 -0.4613,0.0312 -0.7641,0.0312 h -1.0875 v -1.9804 h 1.1789 c 0.286,0 0.5129,0.0144 0.6821,0.0449 0.1683,0.0285 0.3253,0.0887 0.4687,0.1804 0.1449,0.093 0.2461,0.2114 0.3066,0.3567 0.0602,0.1473 0.0895,0.3191 0.0895,0.5183 z m 1.5336,-3.0894 c 0,-0.3391 -0.0652,-0.6398 -0.1934,-0.9016 C 74.2984,23.1965 74.1246,22.9813 73.9078,22.8113 73.6488,22.6094 73.366,22.4648 73.0582,22.3801 72.7496,22.2949 72.357,22.25 71.8813,22.25 h -2.4305 v 6.8555 h 2.0312 c 0.4985,0 0.8735,-0.0188 1.1219,-0.0547 0.2496,-0.0371 0.4875,-0.1133 0.7149,-0.2305 0.2503,-0.1316 0.4335,-0.3008 0.5472,-0.509 0.1137,-0.2078 0.1695,-0.455 0.1695,-0.7422 0,-0.3269 -0.082,-0.6035 -0.248,-0.8328 -0.166,-0.2285 -0.3867,-0.4109 -0.6621,-0.55 v -0.0359 c 0.4625,-0.0957 0.8281,-0.2988 1.0949,-0.6113 0.2676,-0.3106 0.4008,-0.7051 0.4008,-1.1805" />
            <path
               inkscape:connector-curvature="0"
               id="path178"
               style="fill:#ffffff;fill-opacity:1;fill-rule:nonzero;stroke:none"
               d="m 79.4125,26.4492 h -0.0453 c -0.1293,0.0313 -0.2543,0.0528 -0.3754,0.0676 -0.1223,0.0145 -0.2648,0.0203 -0.4313,0.0203 -0.2667,0 -0.5253,-0.0586 -0.7734,-0.1777 -0.248,-0.1192 -0.4867,-0.2703 -0.7187,-0.4578 V 22.25 h -0.8641 v 5.1434 h 0.8641 V 26.634 c 0.3453,0.2754 0.6472,0.4715 0.9101,0.5867 0.2625,0.1141 0.5305,0.1727 0.8031,0.1727 0.15,0 0.2598,-0.0039 0.327,-0.0125 0.0672,-0.0059 0.1695,-0.0215 0.3039,-0.043 v -0.8887" />
            <path
               inkscape:connector-curvature="0"
               id="path180"
               style="fill:#ffffff;fill-opacity:1;fill-rule:nonzero;stroke:none"
               d="m 83.5547,23.5156 v 1.4336 C 83.291,24.9336 82.9809,24.9094 82.623,24.8801 82.2668,24.8484 81.982,24.8035 81.7742,24.7449 81.525,24.6746 81.323,24.5652 81.1703,24.416 81.0168,24.2676 80.941,24.0637 80.941,23.8016 c 0,-0.2926 0.0887,-0.5164 0.2664,-0.6649 0.177,-0.1496 0.4489,-0.2226 0.8153,-0.2226 0.3027,0 0.5808,0.0578 0.8332,0.1765 0.2511,0.1192 0.4847,0.261 0.6988,0.425 z M 84.416,22.25 h -0.8613 v 0.5488 c -0.075,-0.0527 -0.1797,-0.1261 -0.3102,-0.2187 -0.13,-0.0938 -0.2562,-0.168 -0.3793,-0.2246 -0.1449,-0.0703 -0.3117,-0.1282 -0.4976,-0.177 -0.1867,-0.0469 -0.4063,-0.0711 -0.6586,-0.0711 -0.4641,0 -0.8559,0.1543 -1.1785,0.4602 -0.3227,0.3086 -0.4832,0.6988 -0.4832,1.1746 0,0.3887 0.084,0.7051 0.2515,0.9465 0.1664,0.241 0.4055,0.4304 0.7153,0.5672 0.3136,0.1386 0.6902,0.2324 1.1277,0.2812 0.4395,0.0496 0.9105,0.0859 1.4129,0.1102 v 0.134 c 0,0.196 -0.0344,0.3605 -0.1027,0.489 -0.0688,0.1281 -0.1692,0.2297 -0.2973,0.3027 -0.1219,0.0704 -0.2699,0.1196 -0.443,0.1426 -0.1703,0.0266 -0.3512,0.0364 -0.5375,0.0364 -0.2273,0 -0.4801,-0.0274 -0.7597,-0.0887 -0.2793,-0.0586 -0.5676,-0.1457 -0.8657,-0.2602 h -0.0453 v 0.8789 c 0.1684,0.0461 0.4125,0.0981 0.7309,0.1528 0.3207,0.0543 0.634,0.0828 0.9453,0.0828 0.3617,0 0.6773,-0.0305 0.9449,-0.0891 0.2692,-0.0613 0.5004,-0.1617 0.6977,-0.3074 0.1933,-0.1414 0.341,-0.3234 0.4414,-0.5481 0.1023,-0.2234 0.1523,-0.5007 0.1523,-0.832 V 22.25" />
            <path
               inkscape:connector-curvature="0"
               id="path182"
               style="fill:#ffffff;fill-opacity:1;fill-rule:nonzero;stroke:none"
               d="m 87.3152,22.25 h -0.864 v 5.1434 h 0.864 z m 0.0559,6.0051 h -0.9758 v 0.8972 h 0.9758 v -0.8972" />
            <path
               inkscape:connector-curvature="0"
               id="path184"
               style="fill:#ffffff;fill-opacity:1;fill-rule:nonzero;stroke:none"
               d="m 93.6863,22.25 h -0.864 v 2.9297 c 0,0.2344 -0.0149,0.4582 -0.043,0.6641 -0.0266,0.207 -0.0781,0.3691 -0.1504,0.4855 -0.0781,0.1297 -0.1875,0.2254 -0.332,0.2879 -0.1438,0.0625 -0.3313,0.0945 -0.5625,0.0945 -0.2356,0 -0.4832,-0.0574 -0.7403,-0.1746 -0.2578,-0.1172 -0.5046,-0.2656 -0.7421,-0.4453 V 22.25 h -0.8653 v 5.1434 h 0.8653 v -0.5719 c 0.2714,0.2246 0.55,0.4004 0.8378,0.5254 0.2903,0.125 0.5848,0.189 0.8899,0.189 0.5547,0 0.9781,-0.1687 1.2703,-0.5027 0.2922,-0.3352 0.4363,-0.8152 0.4363,-1.4453 V 22.25" />
          </g>
          <g
             id="g4943">
            <path
               inkscape:connector-curvature="0"
               id="path186"
               style="fill:#ffffff;fill-opacity:1;fill-rule:nonzero;stroke:none"
               d="m 104.684,22.25 h -1.128 l -3.25,6.1328 V 22.25 h -0.8517 v 6.8555 h 1.4127 l 2.965,-5.5965 v 5.5965 h 0.852 V 22.25" />
            <path
               inkscape:connector-curvature="0"
               id="path188"
               style="fill:#ffffff;fill-opacity:1;fill-rule:nonzero;stroke:none"
               d="m 110.258,25.3945 c -0.002,0.4551 -0.117,0.8067 -0.343,1.0547 -0.225,0.2481 -0.568,0.3723 -1.029,0.3723 -0.463,0 -0.832,-0.1352 -1.107,-0.4082 -0.275,-0.2746 -0.43,-0.6137 -0.466,-1.0188 z m 0.843,-0.6621 h -3.788 c 0,-0.3164 0.045,-0.591 0.142,-0.8269 0.095,-0.2344 0.225,-0.427 0.392,-0.5785 0.159,-0.1465 0.347,-0.2567 0.568,-0.3309 0.219,-0.0734 0.46,-0.1106 0.724,-0.1106 0.35,0 0.703,0.0704 1.057,0.209 0.356,0.1399 0.607,0.2778 0.757,0.4145 H 111 v -0.9453 c -0.291,-0.1235 -0.589,-0.2258 -0.893,-0.3086 -0.305,-0.0824 -0.624,-0.1242 -0.959,-0.1242 -0.852,0 -1.518,0.2312 -1.998,0.6933 -0.478,0.461 -0.717,1.1172 -0.717,1.9688 0,0.8398 0.229,1.5078 0.688,2.0031 0.458,0.493 1.063,0.7398 1.812,0.7398 0.693,0 1.228,-0.2039 1.604,-0.6082 0.376,-0.4054 0.564,-0.9797 0.564,-1.7265 v -0.4688" />
            <path
               inkscape:connector-curvature="0"
               id="path190"
               style="fill:#ffffff;fill-opacity:1;fill-rule:nonzero;stroke:none"
               d="m 115.441,22.2969 c -0.161,-0.043 -0.339,-0.0789 -0.53,-0.1055 -0.192,-0.0293 -0.364,-0.0422 -0.514,-0.0422 -0.524,0 -0.924,0.1406 -1.198,0.4238 -0.272,0.2825 -0.409,0.7344 -0.409,1.3586 v 2.7344 h -0.584 v 0.7274 h 0.584 v 1.4777 h 0.865 v -1.4777 h 1.786 V 26.666 h -1.786 v -2.3437 c 0,-0.2696 0.007,-0.4805 0.019,-0.6328 0.012,-0.1524 0.055,-0.2942 0.13,-0.4258 0.066,-0.1223 0.16,-0.2121 0.278,-0.2707 0.117,-0.0567 0.298,-0.0828 0.54,-0.0828 0.142,0 0.289,0.0195 0.442,0.0605 0.153,0.0422 0.265,0.077 0.332,0.1035 h 0.045 v -0.7773" />
            <path
               inkscape:connector-curvature="0"
               id="path192"
               style="fill:#ffffff;fill-opacity:1;fill-rule:nonzero;stroke:none"
               d="m 123.314,27.3934 -1.34,-5.1434 h -0.801 l -1.321,3.9656 -1.313,-3.9656 h -0.796 l -1.353,5.1434 h 0.901 l 0.944,-3.9832 1.285,3.9832 h 0.713 l 1.318,-3.9832 0.891,3.9832 h 0.872" />
            <path
               inkscape:connector-curvature="0"
               id="path194"
               style="fill:#ffffff;fill-opacity:1;fill-rule:nonzero;stroke:none"
               d="m 128.41,24.8191 c 0,0.6661 -0.133,1.1614 -0.392,1.4856 -0.261,0.3223 -0.623,0.4851 -1.086,0.4851 -0.47,0 -0.835,-0.1628 -1.094,-0.4851 -0.26,-0.3242 -0.39,-0.8195 -0.39,-1.4856 0,-0.6433 0.132,-1.1328 0.393,-1.4656 0.259,-0.3332 0.623,-0.4988 1.091,-0.4988 0.46,0 0.82,0.1637 1.083,0.4949 0.262,0.3281 0.395,0.8192 0.395,1.4695 z m 0.892,0 c 0,-0.8367 -0.215,-1.4988 -0.644,-1.9843 -0.431,-0.484 -1.006,-0.7274 -1.726,-0.7274 -0.729,0 -1.307,0.2434 -1.735,0.7274 -0.427,0.4855 -0.642,1.1476 -0.642,1.9843 0,0.8379 0.215,1.5012 0.642,1.9856 0.428,0.4883 1.006,0.7312 1.735,0.7312 0.72,0 1.295,-0.2429 1.726,-0.7312 0.429,-0.4844 0.644,-1.1477 0.644,-1.9856" />
            <path
               inkscape:connector-curvature="0"
               id="path196"
               style="fill:#ffffff;fill-opacity:1;fill-rule:nonzero;stroke:none"
               d="m 134.21,26.4492 h -0.047 c -0.128,0.0313 -0.254,0.0528 -0.374,0.0676 -0.122,0.0145 -0.265,0.0203 -0.433,0.0203 -0.266,0 -0.525,-0.0586 -0.773,-0.1777 -0.248,-0.1192 -0.488,-0.2703 -0.719,-0.4578 V 22.25 H 131 v 5.1434 h 0.864 V 26.634 c 0.346,0.2754 0.648,0.4715 0.91,0.5867 0.263,0.1141 0.531,0.1727 0.805,0.1727 0.149,0 0.258,-0.0039 0.325,-0.0125 0.068,-0.0059 0.17,-0.0215 0.306,-0.043 v -0.8887" />
            <path
               inkscape:connector-curvature="0"
               id="path198"
               style="fill:#ffffff;fill-opacity:1;fill-rule:nonzero;stroke:none"
               d="m 140.05,22.25 h -1.142 l -2.061,2.2512 -0.562,-0.5332 V 22.25 h -0.868 v 7.1648 h 0.868 v -4.5957 l 2.499,2.5743 h 1.091 l -2.39,-2.3758 2.565,-2.7676" />
          </g>
          <g
             id="g4933">
            <path
               inkscape:connector-curvature="0"
               id="path200"
               style="fill:#ffffff;fill-opacity:1;fill-rule:nonzero;stroke:none"
               d="m 74.2895,11.8855 c 0,0.5364 -0.0942,0.9895 -0.2813,1.3586 -0.1863,0.368 -0.466,0.6582 -0.8371,0.8692 -0.2707,0.1531 -0.5582,0.2597 -0.8609,0.3203 -0.3047,0.0594 -0.6676,0.0898 -1.0911,0.0898 H 70.3617 V 9.23359 h 0.8574 c 0.4391,0 0.8207,0.03204 1.1477,0.09532 0.3281,0.06562 0.6277,0.18554 0.9008,0.36054 0.3414,0.21758 0.5969,0.50465 0.766,0.86015 0.1699,0.3567 0.2559,0.8012 0.2559,1.3359 z m 0.9515,-0.0132 c 0,-0.6243 -0.1351,-1.1899 -0.4058,-1.6957 C 74.5629,9.67109 74.2016,9.27813 73.7512,8.99883 73.4375,8.80547 73.0879,8.66484 72.7043,8.58008 72.3184,8.49414 71.8109,8.45039 71.1813,8.45039 h -1.7305 v 6.85511 h 1.7117 c 0.6691,0 1.202,-0.0477 1.5965,-0.1446 0.3941,-0.0964 0.7281,-0.2293 1.0012,-0.3992 0.4664,-0.291 0.8296,-0.6789 1.091,-1.164 0.2609,-0.4856 0.3898,-1.0606 0.3898,-1.7254" />
            <path
               inkscape:connector-curvature="0"
               id="path202"
               style="fill:#ffffff;fill-opacity:1;fill-rule:nonzero;stroke:none"
               d="M 81.4527,13.593 78.4508,6.55352 h -0.9254 l 0.9574,2.1457 -2.048,4.89378 h 0.9386 l 1.5801,-3.81175 1.5926,3.81175 h 0.9066" />
            <path
               inkscape:connector-curvature="0"
               id="path204"
               style="fill:#ffffff;fill-opacity:1;fill-rule:nonzero;stroke:none"
               d="m 87.2434,8.45039 h -0.8657 v 2.92971 c 0,0.234 -0.0132,0.4578 -0.0418,0.6637 -0.0261,0.2074 -0.0781,0.3695 -0.1511,0.4867 -0.0774,0.1289 -0.1875,0.2246 -0.3313,0.2871 -0.1445,0.0625 -0.332,0.0945 -0.5625,0.0945 -0.2363,0 -0.4836,-0.0586 -0.7414,-0.175 -0.2574,-0.1172 -0.5047,-0.2652 -0.7422,-0.4461 V 8.45039 H 82.9438 V 13.593 h 0.8636 v -0.5707 c 0.2719,0.2238 0.5512,0.3996 0.8391,0.5246 0.289,0.1258 0.584,0.1894 0.8894,0.1894 0.5547,0 0.9778,-0.1679 1.27,-0.5019 0.2918,-0.3352 0.4375,-0.8164 0.4375,-1.4461 V 8.45039" />
            <path
               inkscape:connector-curvature="0"
               id="path206"
               style="fill:#ffffff;fill-opacity:1;fill-rule:nonzero;stroke:none"
               d="m 92.4023,9.71563 v 1.43277 c -0.2636,-0.0144 -0.5742,-0.039 -0.9316,-0.0695 -0.3574,-0.0301 -0.6414,-0.075 -0.8496,-0.1336 -0.2488,-0.0703 -0.4492,-0.1797 -0.6035,-0.3293 -0.1531,-0.148 -0.2293,-0.3523 -0.2293,-0.614 0,-0.29419 0.0887,-0.51684 0.2664,-0.66528 0.1766,-0.14922 0.4492,-0.22266 0.8152,-0.22266 0.3031,0 0.5813,0.0586 0.8332,0.17696 0.2512,0.11836 0.4856,0.26054 0.6992,0.42461 z M 93.2637,8.45039 H 92.4023 V 8.99883 C 92.3262,8.94648 92.2227,8.87383 92.0918,8.78047 91.9617,8.68633 91.8359,8.61211 91.7129,8.55547 91.5676,8.48516 91.4016,8.42773 91.2148,8.37891 91.0281,8.33203 90.8086,8.30742 90.5566,8.30742 c -0.4636,0 -0.8562,0.1543 -1.1789,0.46094 -0.3218,0.30703 -0.4832,0.69844 -0.4832,1.17422 0,0.38832 0.084,0.70472 0.252,0.94612 0.166,0.2414 0.4055,0.4304 0.7148,0.5672 0.3133,0.1386 0.6895,0.2328 1.1282,0.2812 0.439,0.05 0.9097,0.0859 1.4128,0.1106 v 0.1336 c 0,0.1972 -0.0339,0.3605 -0.1027,0.4894 -0.0691,0.1277 -0.1695,0.2297 -0.2976,0.3027 -0.1219,0.0704 -0.2696,0.1192 -0.4422,0.1438 -0.1711,0.0242 -0.352,0.0359 -0.5383,0.0359 -0.2277,0 -0.4793,-0.0293 -0.7598,-0.089 -0.2793,-0.0594 -0.5676,-0.1461 -0.8652,-0.2606 h -0.0457 v 0.8789 c 0.1687,0.0457 0.4129,0.0977 0.7312,0.1524 0.3203,0.0554 0.6336,0.0832 0.9453,0.0832 0.3614,0 0.677,-0.0305 0.9446,-0.0903 0.2691,-0.0593 0.5008,-0.1609 0.698,-0.3054 0.1934,-0.1418 0.3406,-0.3243 0.4414,-0.5489 0.1028,-0.2238 0.1524,-0.5011 0.1524,-0.8332 V 8.45039" />
            <path
               inkscape:connector-curvature="0"
               id="path208"
               style="fill:#ffffff;fill-opacity:1;fill-rule:nonzero;stroke:none"
               d="m 102.794,8.45039 h -0.866 v 2.92971 c 0,0.2195 -0.011,0.4324 -0.031,0.6383 -0.02,0.2062 -0.062,0.3695 -0.126,0.4921 -0.071,0.1329 -0.171,0.2325 -0.304,0.2993 -0.132,0.0679 -0.322,0.1023 -0.571,0.1023 -0.243,0 -0.485,-0.0605 -0.727,-0.1816 -0.2432,-0.1219 -0.4854,-0.2754 -0.7288,-0.4629 0.0102,-0.0703 0.0176,-0.1524 0.0239,-0.2461 0.0054,-0.0938 0.0093,-0.1867 0.0093,-0.2793 V 8.45039 h -0.866 v 2.92971 c 0,0.2254 -0.009,0.4414 -0.0293,0.6465 -0.0195,0.2031 -0.0613,0.366 -0.1261,0.489 -0.0704,0.1328 -0.1727,0.2317 -0.3036,0.2969 -0.1328,0.0664 -0.323,0.0996 -0.5722,0.0996 -0.2356,0 -0.4739,-0.0586 -0.711,-0.175 C 96.627,12.6199 96.3906,12.4719 96.1531,12.291 V 8.45039 h -0.864 V 13.593 h 0.864 v -0.5707 c 0.2715,0.2238 0.541,0.3996 0.8086,0.5246 0.2688,0.1258 0.5551,0.1894 0.8598,0.1894 0.3496,0 0.6465,-0.0742 0.8902,-0.2207 0.2446,-0.1476 0.4262,-0.3515 0.5449,-0.6133 0.3508,0.2942 0.6692,0.5079 0.9574,0.6375 0.29,0.1301 0.598,0.1965 0.926,0.1965 0.565,0 0.982,-0.1718 1.251,-0.5136 0.268,-0.3426 0.403,-0.8204 0.403,-1.4344 V 8.45039" />
            <path
               inkscape:connector-curvature="0"
               id="path210"
               style="fill:#ffffff;fill-opacity:1;fill-rule:nonzero;stroke:none"
               d="m 105.692,8.45039 h -0.864 V 13.593 h 0.864 z m 0.056,6.00351 h -0.976 v 0.8984 h 0.976 v -0.8984" />
            <path
               inkscape:connector-curvature="0"
               id="path212"
               style="fill:#ffffff;fill-opacity:1;fill-rule:nonzero;stroke:none"
               d="m 111.567,8.77344 c -0.289,-0.13867 -0.562,-0.2461 -0.821,-0.32305 -0.261,-0.07539 -0.536,-0.11445 -0.827,-0.11445 -0.372,0 -0.712,0.05351 -1.023,0.16289 -0.309,0.10859 -0.575,0.27461 -0.795,0.49531 -0.225,0.2207 -0.399,0.5 -0.52,0.83867 -0.123,0.33709 -0.185,0.73089 -0.185,1.18169 0,0.8418 0.232,1.5011 0.693,1.9804 0.462,0.4785 1.071,0.718 1.83,0.718 0.295,0 0.584,-0.0418 0.867,-0.125 0.284,-0.0813 0.544,-0.1836 0.781,-0.3035 v -0.9621 h -0.046 c -0.264,0.205 -0.537,0.3632 -0.818,0.4746 -0.279,0.1101 -0.554,0.166 -0.82,0.166 -0.491,0 -0.88,-0.166 -1.163,-0.4949 -0.283,-0.3301 -0.426,-0.8149 -0.426,-1.4535 0,-0.6192 0.139,-1.09575 0.416,-1.42973 0.278,-0.33204 0.668,-0.49883 1.173,-0.49883 0.174,0 0.352,0.02344 0.533,0.06953 0.181,0.0457 0.344,0.10508 0.488,0.17851 0.126,0.06446 0.244,0.13399 0.355,0.20508 0.11,0.07305 0.198,0.13555 0.262,0.18672 h 0.046 V 8.77344" />
            <path
               inkscape:connector-curvature="0"
               id="path214"
               style="fill:#ffffff;fill-opacity:1;fill-rule:nonzero;stroke:none"
               d="m 116.708,9.93359 c 0,-0.46953 -0.194,-0.85468 -0.582,-1.15546 -0.388,-0.30157 -0.919,-0.45196 -1.591,-0.45196 -0.38,0 -0.729,0.0461 -1.047,0.13672 -0.317,0.08984 -0.585,0.18945 -0.8,0.29609 v 0.97149 h 0.046 c 0.275,-0.20508 0.579,-0.36914 0.912,-0.49024 0.335,-0.12226 0.655,-0.18046 0.962,-0.18046 0.38,0 0.678,0.06015 0.894,0.1832 0.215,0.12109 0.323,0.31445 0.323,0.58008 0,0.20355 -0.059,0.35665 -0.176,0.46015 -0.117,0.1047 -0.34,0.1934 -0.671,0.2664 -0.124,0.0274 -0.285,0.0606 -0.483,0.0969 -0.197,0.0359 -0.378,0.0762 -0.54,0.1199 -0.45,0.1191 -0.771,0.2949 -0.96,0.5274 -0.189,0.2316 -0.282,0.5167 -0.282,0.8546 0,0.211 0.042,0.4114 0.13,0.5977 0.087,0.1863 0.221,0.3547 0.399,0.5019 0.171,0.1446 0.39,0.2586 0.654,0.3426 0.266,0.084 0.563,0.1274 0.893,0.1274 0.305,0 0.617,-0.0383 0.932,-0.1133 0.315,-0.0754 0.576,-0.166 0.785,-0.2738 v -0.9254 h -0.046 c -0.222,0.1629 -0.49,0.3004 -0.807,0.4121 -0.316,0.1121 -0.626,0.1676 -0.929,0.1676 -0.317,0 -0.583,-0.0606 -0.801,-0.1805 -0.219,-0.1223 -0.327,-0.3027 -0.327,-0.5418 0,-0.2121 0.066,-0.3715 0.197,-0.4785 0.13,-0.1078 0.338,-0.1953 0.627,-0.2629 0.159,-0.0363 0.338,-0.0735 0.536,-0.1106 0.198,-0.0359 0.363,-0.0703 0.495,-0.1004 0.402,-0.0925 0.712,-0.2507 0.93,-0.4746 0.219,-0.2273 0.327,-0.5273 0.327,-0.90231" />
          </g>
          <g
             id="g4927">
            <path
               inkscape:connector-curvature="0"
               id="path216"
               style="fill:#ffffff;fill-opacity:1;fill-rule:nonzero;stroke:none"
               d="m 127.207,11.2039 c 0,-0.4969 -0.055,-0.9305 -0.163,-1.30077 -0.108,-0.36875 -0.286,-0.67735 -0.535,-0.92266 -0.238,-0.2332 -0.515,-0.4043 -0.831,-0.51094 -0.315,-0.1082 -0.684,-0.16211 -1.103,-0.16211 -0.43,0 -0.804,0.05781 -1.124,0.17227 -0.318,0.11094 -0.589,0.27929 -0.805,0.50078 -0.25,0.25195 -0.427,0.55547 -0.538,0.91094 -0.108,0.35589 -0.163,0.79409 -0.163,1.31249 v 4.1016 h 0.912 V 11.157 c 0,-0.3711 0.025,-0.664 0.076,-0.8789 0.05,-0.2144 0.136,-0.40896 0.256,-0.58396 0.134,-0.2 0.319,-0.35039 0.55,-0.45117 0.231,-0.10234 0.51,-0.15234 0.836,-0.15234 0.327,0 0.607,0.05 0.837,0.1496 0.23,0.1004 0.415,0.25079 0.553,0.45391 0.119,0.175 0.204,0.37496 0.255,0.59966 0.051,0.2265 0.076,0.507 0.076,0.841 v 4.1707 h 0.911 v -4.1016" />
            <path
               inkscape:connector-curvature="0"
               id="path218"
               style="fill:#ffffff;fill-opacity:1;fill-rule:nonzero;stroke:none"
               d="m 133.536,8.45039 h -0.864 v 2.92971 c 0,0.234 -0.015,0.4578 -0.041,0.6637 -0.028,0.2074 -0.08,0.3695 -0.152,0.4867 -0.077,0.1289 -0.187,0.2246 -0.333,0.2871 -0.143,0.0625 -0.331,0.0945 -0.562,0.0945 -0.234,0 -0.481,-0.0586 -0.74,-0.175 -0.257,-0.1172 -0.505,-0.2652 -0.741,-0.4461 V 8.45039 h -0.865 V 13.593 h 0.865 v -0.5707 c 0.269,0.2238 0.548,0.3996 0.838,0.5246 0.288,0.1258 0.584,0.1894 0.888,0.1894 0.557,0 0.98,-0.1679 1.272,-0.5019 0.291,-0.3352 0.435,-0.8164 0.435,-1.4461 V 8.45039" />
            <path
               inkscape:connector-curvature="0"
               id="path220"
               style="fill:#ffffff;fill-opacity:1;fill-rule:nonzero;stroke:none"
               d="m 136.436,8.45039 h -0.865 V 13.593 h 0.865 z m 0.054,6.00351 h -0.973 v 0.8984 h 0.973 v -0.8984" />
            <path
               inkscape:connector-curvature="0"
               id="path222"
               style="fill:#ffffff;fill-opacity:1;fill-rule:nonzero;stroke:none"
               d="m 141.178,8.49727 c -0.161,-0.04336 -0.339,-0.0793 -0.531,-0.10586 -0.192,-0.0293 -0.364,-0.0418 -0.512,-0.0418 -0.526,0 -0.926,0.14062 -1.198,0.42383 -0.274,0.28203 -0.411,0.73437 -0.411,1.35816 v 2.7344 h -0.584 v 0.727 h 0.584 v 1.4785 h 0.865 V 13.593 h 1.787 v -0.727 h -1.787 v -2.3437 c 0,-0.2703 0.007,-0.4813 0.02,-0.63285 0.011,-0.15234 0.056,-0.29375 0.129,-0.42539 0.067,-0.12226 0.16,-0.21289 0.279,-0.2707 0.116,-0.05547 0.298,-0.08398 0.538,-0.08398 0.144,0 0.29,0.0207 0.445,0.06171 0.151,0.0418 0.264,0.07696 0.329,0.10313 h 0.047 V 8.49727" />
          </g>
        </g>
      </g>
      <flowRoot
         xml:space="preserve"
         id="flowRoot1098"
         style="font-style:normal;font-variant:normal;font-weight:normal;font-stretch:normal;font-size:21.33327103px;line-height:100%;font-family:sans-serif;-inkscape-font-specification:'sans-serif, Normal';font-variant-ligatures:normal;font-variant-caps:normal;font-variant-numeric:normal;font-feature-settings:normal;text-align:justify;letter-spacing:0px;word-spacing:0px;writing-mode:lr-tb;text-anchor:start;fill:#847059;fill-opacity:1;stroke:none;stroke-width:1px;stroke-linecap:butt;stroke-linejoin:miter;stroke-opacity:1"
         transform="matrix(1.9277952,0,0,-1.9277952,-33.756122,288.39305)"><flowRegion
           id="flowRegion1100"
           style="font-style:normal;font-variant:normal;font-weight:normal;font-stretch:normal;font-size:21.33327103px;font-family:sans-serif;-inkscape-font-specification:'sans-serif, Normal';font-variant-ligatures:normal;font-variant-caps:normal;font-variant-numeric:normal;font-feature-settings:normal;text-align:justify;writing-mode:lr-tb;text-anchor:start;fill:#847059;fill-opacity:1"><rect
             id="rect1102"
             width="702.15796"
             height="103.87429"
             x="16.909767"
             y="152.42079"
             style="font-style:normal;font-variant:normal;font-weight:normal;font-stretch:normal;font-size:21.33327103px;font-family:sans-serif;-inkscape-font-specification:'sans-serif, Normal';font-variant-ligatures:normal;font-variant-caps:normal;font-variant-numeric:normal;font-feature-settings:normal;text-align:justify;writing-mode:lr-tb;text-anchor:start;fill:#847059;fill-opacity:1" /></flowRegion><flowPara
           id="flowPara1104">Server Stats</flowPara></flowRoot>    </g>
  </g>
</svg>
